HIERARCHY
ROOT SpineBase
{
  OFFSET 0.000000 0.000000 0.000000
  CHANNELS 6 Xposition Yposition Zposition Zrotation Xrotation Yrotation
  JOINT SpineMid
  {
    OFFSET 0.000000 34.003718 0.000000
    CHANNELS 3 Zrotation Xrotation Yrotation
    JOINT SpineShoulder
    {
      OFFSET 0.709131 25.203257 -0.902490
      CHANNELS 3 Zrotation Xrotation Yrotation
      JOINT Neck
      {
        OFFSET 0.304939 8.313765 -0.586346
        CHANNELS 3 Zrotation Xrotation Yrotation
        JOINT Head
        {
          OFFSET 6.423943 10.754155 4.573127
          CHANNELS 3 Zrotation Xrotation Yrotation
          End Site
          {
            OFFSET 0 0 0
          }
        }
      }
      JOINT ShoulderLeft
      {
        OFFSET -6.730776 -1.847164 -11.244574
        CHANNELS 3 Zrotation Xrotation Yrotation
        JOINT ElbowLeft
        {
          OFFSET -3.423338 -21.293594 -9.825856
          CHANNELS 3 Zrotation Xrotation Yrotation
          JOINT WristLeft
          {
            OFFSET 4.541340 -26.186271 -3.798027
            CHANNELS 3 Zrotation Xrotation Yrotation
            JOINT HandLeft
            {
              OFFSET 2.416744 -8.315323 -0.324025
              CHANNELS 3 Zrotation Xrotation Yrotation
              JOINT HandTipLeft
              {
                OFFSET 1.775780 -6.392225 -0.318466
                CHANNELS 3 Zrotation Xrotation Yrotation
                End Site
                {
                  OFFSET 0 0 0
                }
              }
              JOINT ThumbLeft
              {
                OFFSET -1.468347 -1.374600 -2.190331
                CHANNELS 3 Zrotation Xrotation Yrotation
                End Site
                {
                  OFFSET 0 0 0
                }
              }
            }
          }
        }
      }
      JOINT ShoulderRight
      {
        OFFSET 5.280495 -7.780836 18.896359
        CHANNELS 3 Zrotation Xrotation Yrotation
        JOINT ElbowRight
        {
          OFFSET 0.362847 -26.483852 2.214696
          CHANNELS 3 Zrotation Xrotation Yrotation
          JOINT WristRight
          {
            OFFSET 1.631015 -26.633760 -2.252400
            CHANNELS 3 Zrotation Xrotation Yrotation
            JOINT HandRight
            {
              OFFSET -0.078501 -3.271791 0.657450
              CHANNELS 3 Zrotation Xrotation Yrotation
              JOINT HandTipRight
              {
                OFFSET 0.199962 -1.647479 -2.481974
                CHANNELS 3 Zrotation Xrotation Yrotation
                End Site
                {
                  OFFSET 0 0 0
                }
              }
              JOINT ThumbRight
              {
                OFFSET 0.546271 0.676558 -1.632711
                CHANNELS 3 Zrotation Xrotation Yrotation
                End Site
                {
                  OFFSET 0 0 0
                }
              }
            }
          }
        }
      }
    }
  }
  JOINT HipLeft
  {
    OFFSET -1.681040 2.561365 -10.427672
    CHANNELS 3 Zrotation Xrotation Yrotation
    JOINT KneeLeft
    {
      OFFSET -7.967761 -25.886316 -4.494008
      CHANNELS 3 Zrotation Xrotation Yrotation
      JOINT AnkleLeft
      {
        OFFSET -7.975059 -34.491919 1.345083
        CHANNELS 3 Zrotation Xrotation Yrotation
        JOINT FootLeft
        {
          OFFSET 10.332000 -4.205652 -7.353979
          CHANNELS 3 Zrotation Xrotation Yrotation
          End Site
          {
            OFFSET 0 0 0
          }
        }
      }
    }
  }
  JOINT HipRight
  {
    OFFSET 3.921935 -0.689014 3.176396
    CHANNELS 3 Zrotation Xrotation Yrotation
    JOINT KneeRight
    {
      OFFSET -6.721821 -27.648089 -6.133201
      CHANNELS 3 Zrotation Xrotation Yrotation
      JOINT AnkleRight
      {
        OFFSET -4.341339 -31.059051 5.345240
        CHANNELS 3 Zrotation Xrotation Yrotation
        JOINT FootRight
        {
          OFFSET 12.885796 -3.907311 -7.599426
          CHANNELS 3 Zrotation Xrotation Yrotation
          End Site
          {
            OFFSET 0 0 0
          }
        }
      }
    }
  }
}
MOTION
Frames: 14
Frame Time: 0.033333
-101.923997 66.983903 333.683424 -0.000000 0.000000 -67.615185 -0.000000 0.000000 67.615185 -0.000000 0.000000 0.000000 -0.000000 0.000000 0.000000 0.000000 0.000000 0.000000 -0.000000 0.000000 0.000000 -0.000000 0.000000 0.000000 -0.000000 0.000000 0.000000 -0.000000 0.000000 0.000000 0.000000 0.000000 0.000000 0.000000 0.000000 0.000000 -0.000000 0.000000 0.000000 -0.000000 0.000000 0.000000 -0.000000 0.000000 0.000000 -0.000000 0.000000 0.000000 0.000000 0.000000 0.000000 0.000000 0.000000 0.000000 -0.000000 0.000000 67.615185 -0.000000 0.000000 0.000000 -0.000000 0.000000 0.000000 0.000000 0.000000 0.000000 -0.000000 0.000000 67.615185 -0.000000 0.000000 0.000000 -0.000000 0.000000 0.000000 0.000000 0.000000 0.000000
-101.894846 67.032551 333.802306 -0.019410 0.286503 -67.336581 0.271860 -0.092482 67.336848 -0.000000 0.000000 0.000000 0.384865 0.541371 -0.488863 0.000000 0.000000 0.000000 -0.000000 0.000000 0.000000 1.762488 -1.042911 -0.419911 0.302462 -3.674743 -0.947278 1.930975 4.365143 0.902293 0.000000 0.000000 0.000000 0.000000 0.000000 0.000000 -0.000000 0.000000 0.000000 0.806898 0.590056 -0.036229 1.658497 7.275306 0.193731 -3.195892 -19.404175 -1.325632 0.000000 0.000000 0.000000 0.000000 0.000000 0.000000 0.271860 -0.092482 67.336848 -0.000000 0.000000 0.000000 -0.000000 0.000000 0.000000 0.000000 0.000000 0.000000 1.983017 0.233577 67.475779 -0.956844 1.455681 -0.128882 -2.844398 -0.686391 3.587000 0.000000 0.000000 0.000000
-101.879237 67.079912 334.005608 -0.074294 0.560564 -67.070915 -0.071383 0.479672 67.063046 -0.339558 -0.813229 0.008310 0.681862 0.881911 -0.822241 0.000000 0.000000 0.000000 -0.000000 0.000000 0.000000 3.164390 -1.876564 -0.730934 0.330360 -6.827561 -1.666905 3.281342 8.142398 1.376073 0.000000 0.000000 0.000000 0.000000 0.000000 0.000000 0.362255 1.410745 0.045207 1.162731 -0.088085 -0.082031 3.023110 13.126121 0.131121 -7.053182 -36.258213 -2.810750 0.000000 0.000000 0.000000 0.000000 0.000000 0.000000 0.545218 -0.149964 67.071992 -0.000000 0.000000 0.000000 -0.000000 0.000000 0.000000 0.000000 0.000000 0.000000 3.597572 0.480211 67.296497 -1.384229 3.938465 -0.342813 -6.331895 -3.163853 7.000745 0.000000 0.000000 0.000000
-101.877170 67.125985 334.293331 -0.164691 0.822235 -66.818290 -0.086262 0.665674 66.806665 -0.129849 -0.179738 0.000963 0.605032 0.041673 -0.970148 0.000000 0.000000 0.000000 -0.283184 -0.983911 0.013676 4.208077 -2.493755 -0.948453 0.022248 -9.281599 -2.185069 4.294736 11.105069 1.593645 0.000000 0.000000 0.000000 0.000000 0.000000 0.000000 0.150292 1.141265 0.078595 1.728739 0.082080 -0.082572 4.107271 17.548155 -0.056296 -11.663714 -48.839902 -4.610637 0.000000 0.000000 0.000000 0.000000 0.000000 0.000000 0.820682 -0.172265 66.820706 -0.000000 0.000000 0.000000 -0.000000 0.000000 0.000000 0.000000 0.000000 0.000000 4.861073 0.745012 67.079137 -2.027719 5.509579 -0.473060 -9.712778 -5.520641 9.949932 0.000000 0.000000 0.000000
-101.888644 67.170772 334.665473 -0.290662 1.071561 -66.578717 -0.088066 0.815509 66.563341 -0.161755 -0.222141 -0.002792 0.743454 -0.279558 -0.972531 0.000000 0.000000 0.000000 -0.260362 -1.254496 0.024781 4.897124 -2.890954 -1.084421 -0.660221 -10.926972 -2.530402 5.137775 13.121994 1.672255 0.000000 0.000000 0.000000 0.000000 0.000000 0.000000 0.172010 1.591257 0.098925 2.292840 0.409552 -0.059311 4.927954 20.654220 -0.271239 -16.710486 -56.758728 -6.572932 0.000000 0.000000 0.000000 0.000000 0.000000 0.000000 0.321898 0.650993 66.192438 -0.358728 -0.194260 0.198614 -0.071828 -0.843337 0.191583 0.000000 0.000000 0.000000 5.788346 1.033470 66.825614 -2.656467 6.827922 -0.578331 -13.216577 -8.424160 12.141663 0.000000 0.000000 0.000000
-101.913659 67.214271 335.122036 -0.452283 1.308579 -66.352117 -0.077342 0.928998 66.332881 -0.187910 -0.255698 -0.008573 0.850708 -0.764370 -0.816875 0.000000 0.000000 0.000000 -0.178799 -1.496467 0.039907 5.234984 -3.066881 -1.146888 -1.740433 -11.696697 -2.717254 5.909870 14.117202 1.681889 0.000000 0.000000 0.000000 0.000000 0.000000 0.000000 0.180174 2.076211 0.117491 2.858717 0.909588 -0.013718 5.504768 22.586895 -0.449448 -21.304853 -60.529075 -7.990235 0.000000 0.000000 0.000000 0.000000 0.000000 0.000000 0.210752 0.979751 65.811661 -0.423352 -0.407002 0.298806 -0.097807 -1.105908 0.250808 0.000000 0.000000 0.000000 6.390878 1.351360 66.538042 -3.279281 7.898049 -0.660378 -16.869513 -11.845598 13.191541 0.000000 0.000000 0.000000
-101.971062 67.269570 335.698906 -0.686708 1.548248 -66.165197 -0.046410 0.960496 66.139569 -0.223117 -0.265098 -0.020922 1.048500 -1.610736 -0.390577 0.000000 0.000000 0.000000 0.051821 -1.713675 0.067220 4.985931 -3.102349 -1.122559 -3.476443 -11.178693 -2.700138 6.918643 14.087676 1.663810 0.000000 0.000000 0.000000 0.000000 0.000000 0.000000 0.285076 2.692390 0.145821 3.674379 1.924289 0.051256 5.357275 24.264808 -0.668444 -26.597542 -66.676743 -12.656313 0.000000 0.000000 0.000000 0.000000 0.000000 0.000000 0.070416 1.454952 65.441580 -0.554217 -0.676159 0.423759 -0.102301 -1.403115 0.318977 0.000000 0.000000 0.000000 6.681037 1.765326 66.230122 -4.144342 9.206147 -0.795093 -21.838457 -17.227790 9.001228 0.000000 0.000000 0.000000
-102.056505 67.336074 336.347875 -0.972213 1.764088 -66.033501 -0.016935 0.974113 66.001291 -0.239864 -0.265269 -0.034243 1.195977 -2.493868 0.115335 0.000000 0.000000 0.000000 -0.628648 -1.440668 0.436674 5.799382 -3.406969 -1.402201 -6.115923 -9.438796 -2.275781 8.715591 12.102843 1.238223 0.000000 0.000000 0.000000 0.000000 0.000000 0.000000 0.343385 3.515128 0.175135 4.449347 2.703322 0.147141 4.972255 25.255346 -0.850323 -28.399963 -65.258401 -10.874449 0.000000 0.000000 0.000000 0.000000 0.000000 0.000000 -0.185488 2.038917 65.097950 -0.658584 -1.100142 0.593396 -0.145434 -1.367109 1.153858 0.000000 0.000000 0.000000 6.845393 2.322700 65.929495 -4.444964 9.178904 -0.691357 -30.157620 -22.815768 15.841000 0.000000 0.000000 0.000000
-102.119608 67.367164 337.095056 -1.240292 1.956754 -65.809123 0.024525 0.997913 65.772581 -0.242045 -0.278316 -0.044392 1.121722 -3.336477 0.682114 0.000000 0.000000 0.000000 -0.924345 -1.391354 0.656272 5.572429 -3.090463 -1.434882 -8.233693 -7.046925 -1.651577 9.830080 8.694384 0.766685 0.000000 0.000000 0.000000 0.000000 0.000000 0.000000 0.272993 4.007961 0.190808 5.026879 4.023033 0.253866 4.144636 21.752263 -0.578197 -23.871652 -50.420894 -0.569641 0.000000 0.000000 0.000000 0.000000 0.000000 0.000000 -0.527379 2.560528 64.672199 -0.658402 -1.472878 0.742825 -0.230895 -1.662769 1.441428 0.000000 0.000000 0.000000 6.378472 2.754903 65.512230 -4.828163 8.947834 -0.646080 -38.167286 -28.937818 16.123656 0.000000 0.000000 0.000000
-102.144742 67.355601 337.817145 -1.458482 2.142223 -65.553309 0.067885 1.020754 65.514073 -0.232504 -0.292475 -0.051504 0.876810 -4.319724 1.370371 0.000000 0.000000 0.000000 -1.351163 -1.327774 0.898181 4.987399 -2.412657 -1.391049 -9.375017 -5.081619 -1.142125 8.720813 5.655717 0.638461 0.000000 0.000000 0.000000 0.000000 0.000000 0.000000 0.081661 4.322124 0.195536 5.250982 5.345299 0.381579 2.701763 17.144363 -0.411987 -21.048490 -40.735429 4.716112 0.000000 0.000000 0.000000 0.000000 0.000000 0.000000 -0.851529 2.918859 64.259028 -0.564428 -1.702733 0.839837 -0.307540 -2.001886 1.753338 0.000000 0.000000 0.000000 5.478941 2.963119 65.094991 -4.745701 8.422136 -0.623234 -46.097252 -33.340756 10.329221 0.000000 0.000000 0.000000
-102.116099 67.328408 338.484514 -1.597846 2.283915 -65.373993 0.132985 1.042140 65.334584 -0.213979 -0.316641 -0.053520 0.587300 -4.913998 1.830574 0.000000 0.000000 0.000000 -1.837960 -1.288449 1.128845 4.382812 -1.551287 -1.328105 -9.977426 -3.575209 -0.742042 6.747983 4.050138 0.730115 0.000000 0.000000 0.000000 0.000000 0.000000 0.000000 -0.198546 4.244241 0.180721 5.185900 6.837837 0.497739 2.443789 13.420846 -0.279276 -20.419583 -35.937839 7.251027 0.000000 0.000000 0.000000 0.000000 0.000000 0.000000 -1.130448 3.040938 63.990479 -0.375862 -1.683628 0.849763 -0.355400 -2.406927 2.048367 0.000000 0.000000 0.000000 3.972822 2.963301 64.765327 -4.656730 7.855639 -0.694838 -50.727722 -32.407209 -8.427974 0.000000 0.000000 0.000000
-102.051879 67.287565 338.981709 -1.657681 2.383026 -65.203601 0.178646 1.051313 65.164466 -0.202035 -0.329728 -0.053904 0.119319 -5.187183 2.141078 0.000000 0.000000 0.000000 -2.265160 -1.349552 1.322252 3.075408 -1.053472 -1.232326 -9.776333 -2.343996 -0.513115 6.526156 4.243941 0.977260 0.000000 0.000000 0.000000 0.000000 0.000000 0.000000 -0.433758 4.075428 0.163687 4.813214 7.403997 0.594902 1.092118 11.339216 -0.569387 -17.939018 -31.920865 9.635113 0.000000 0.000000 0.000000 0.000000 0.000000 0.000000 -1.225637 2.928310 63.817446 -0.129697 -1.301722 0.747522 -0.404726 -2.862066 2.347989 0.000000 0.000000 0.000000 4.145758 3.166542 64.537214 -6.073703 9.214382 -0.928360 -43.078127 -30.101431 -14.683699 0.000000 0.000000 0.000000
-101.961949 67.234277 339.274144 -1.670941 2.544347 -65.222680 0.174450 1.043353 65.182171 -0.201508 -0.331228 -0.056318 -0.360977 -5.603319 2.475291 0.000000 0.000000 0.000000 -2.655819 -1.474367 1.491468 1.745109 0.363860 -0.914610 -10.346824 -3.135043 -1.034839 7.393507 3.836253 0.900049 0.000000 0.000000 0.000000 0.000000 0.000000 0.000000 -0.653407 3.538098 0.141647 4.407075 7.540841 0.661674 -0.713005 8.739280 -0.970303 -14.073312 -28.363081 11.124977 0.000000 0.000000 0.000000 0.000000 0.000000 0.000000 -0.969000 2.575149 63.929428 0.115910 -0.539403 0.526278 -0.431076 -3.342848 2.602887 0.000000 0.000000 0.000000 3.827412 2.971817 64.560198 -6.884462 10.560681 -1.232495 -58.901769 -31.730151 -33.188874 0.000000 0.000000 0.000000
-101.849211 67.162671 339.475801 -1.638061 2.632659 -65.336638 0.164525 1.045878 65.295959 -0.198568 -0.312902 -0.056379 -0.812157 -5.393745 2.423175 0.000000 0.000000 0.000000 -3.083321 -1.594782 1.651579 -0.129779 0.922821 -0.663522 -10.037571 -4.235113 -1.824470 8.225601 5.402653 1.380544 0.000000 0.000000 0.000000 0.000000 0.000000 0.000000 -0.836384 2.636543 0.106595 3.799261 7.674821 0.699023 -3.350756 2.449634 -1.598492 -8.653755 -22.641703 12.465062 0.000000 0.000000 0.000000 0.000000 0.000000 0.000000 -0.869623 2.202814 64.124293 0.332763 0.094883 0.328105 -0.379235 -3.778896 2.774793 0.000000 0.000000 0.000000 3.941285 2.736928 64.737348 -6.298106 10.538681 -1.228884 -59.377246 -35.277520 -20.548969 0.000000 0.000000 0.000000
